<svg width="199" height="168" viewBox="0 0 199 168" fill="none" xmlns="http://www.w3.org/2000/svg">
<path d="M106.674 0.455011C107.196 0.0794102 107.86 -0.133405 108.462 0.0928728C109.493 0.480598 110.021 1.57634 110.21 2.81063C111.751 12.8812 111.787 23.3511 114.969 33.1084C116.73 38.5101 121.043 42.1265 126.783 40.758C130.223 39.9379 134.156 38.3704 137.586 37.1758L157.757 30.1363L189.04 19.2541C191.751 18.3122 194.68 17.3377 197.59 16.3374C198.952 15.8693 199.577 17.1633 198.33 17.8825L185.6 25.3163C162.786 38.4691 140.161 51.9662 117.737 65.8033C107.849 71.8691 97.3071 77.4484 88.1114 84.4923C84.0341 87.77 80.4873 91.3627 78.0342 96.0657C75.9873 99.7209 76.615 103.514 81.6483 102.409C88.8396 100.831 95.7979 97.3579 102.581 94.4949C109.888 91.4878 117.168 88.414 124.422 85.2739C126.398 84.4184 128.702 85.1126 129.901 86.9025C134.197 93.3191 138.766 99.597 143.17 105.923C145.818 109.728 155.368 122.406 156.051 125.957C156.133 126.386 156.091 126.728 155.84 127.086C155.461 127.623 154.739 127.96 154.108 128.01C152.137 128.165 149.977 127.623 148.026 127.308C145.029 126.826 142.033 126.327 139.04 125.809L108.475 120.507C102.533 119.42 95.504 116.505 91.2129 122.034C89.5815 124.135 88.0376 126.5 86.517 128.696L78.244 140.626C72.5974 148.382 67.0761 156.291 61.3224 163.982C59.9024 165.88 57.0261 169.564 55.1309 165.627C54.4332 164.178 54.0816 159.961 53.794 158.098L50.4988 136.706C49.8549 132.66 49.366 128.332 48.1192 124.438C46.5024 119.388 41.0358 120.354 37.131 121.478C34.0038 122.377 30.8957 123.475 27.8242 124.512L5.99248 132.077C4.9623 132.434 3.808 132.858 2.60595 133.279C-0.129726 134.239 -1.0235 132.202 1.44851 130.688L48.4226 101.907C56.9546 96.6903 66.1245 91.4765 74.0217 85.3484C78.7667 81.3942 84.8757 76.383 87.3812 70.5286C89.8454 64.7698 83.1242 65.7178 79.9786 66.814C74.9442 68.5683 70.0182 70.7918 65.0734 72.8601C56.7821 76.2722 48.526 79.773 40.3066 83.3619C38.2969 84.2394 35.9468 83.5114 34.7176 81.6947C32.8849 78.9859 30.8232 76.1279 29.133 73.7005L15.4871 54.0625L10.8843 47.3589C9.98731 46.0482 7.40592 42.8671 7.84736 41.3295C8.46886 39.1654 13.6297 40.7149 15.3271 41.0221L23.5166 42.45C32.9178 44.0235 42.3101 45.6518 51.693 47.3349C55.8195 48.0989 64.6099 50.3499 68.2791 49.7146C70.0537 49.4074 71.341 48.5851 72.633 47.3268C76.075 43.9744 79.7133 38.0586 82.595 33.9816C87.4666 27.0895 92.4728 20.2652 97.1989 13.2686C99.5115 9.84488 103.232 2.93233 106.674 0.455011Z" fill="black"/>
</svg>
