<svg width="54" height="26" viewBox="0 0 54 26" fill="none" xmlns="http://www.w3.org/2000/svg">
<path d="M8.79429 0.847827H5.41408V7.51739C5.41408 8.84565 6.6745 9.52391 8.02086 9.52391H8.16408C8.53648 9.52391 8.90888 9.46739 9.30992 9.24131C9.71096 9.04348 10.513 7.9413 10.513 7.9413H11.1146V12.4348H10.513C10.513 12.4348 9.71096 11.3326 9.30992 11.1348C8.90888 10.9087 8.53648 10.8522 8.16408 10.8522H8.02086C6.6745 10.8522 5.41408 11.5304 5.41408 12.8587V17.2109C5.41408 17.55 5.52866 17.9174 5.78647 18.2L6.87502 19.5283V20.0935H0V19.5283L1.0599 18.2C1.31771 17.9174 1.4323 17.55 1.4323 17.2109V14.4978C1.4323 11.8413 3.43751 10.6543 6.07293 10.4C7.07554 10.287 8.13544 10.3152 8.76565 10.2022C8.13544 10.0609 7.07554 10.0891 6.07293 10.0043C3.43751 9.72174 1.4323 8.53478 1.4323 5.87826V3.19348C1.4323 2.82609 1.31771 2.4587 1.0599 2.17609L0 0.847827V0.310869H12.1459L12.6615 5.25652H12.0886L9.65367 1.32826C9.45315 1.01739 9.19534 0.847827 8.79429 0.847827Z" fill="white"/>
<path d="M18.4267 18.2848L19.5152 19.5V20.0935H12.9267V19.5L13.9866 18.2C14.2444 17.8891 14.359 17.55 14.359 17.2109V9.72174C14.359 9.32609 14.2444 8.98696 13.9866 8.70435L12.9267 7.37609V6.78261L17.4814 5.93478H18.083V17.2109C18.083 17.55 18.1689 18.0022 18.4267 18.2848ZM15.9345 4.55C14.6454 4.55 13.6428 3.50435 13.6428 2.26087C13.6428 1.01739 14.6454 0 15.9345 0C17.1949 0 18.1975 1.01739 18.1975 2.26087C18.1975 3.50435 17.1949 4.55 15.9345 4.55Z" fill="white"/>
<path d="M25.5087 18.2848L26.5973 19.5V20.0652H20.0087V19.5L21.0686 18.2C21.3264 17.8891 21.441 17.5217 21.441 17.2109V4.0413C21.441 3.70217 21.3264 3.30652 21.0686 3.05217L20.0087 1.69565V1.1587L24.5634 0.310869H25.165V17.2109C25.165 17.55 25.2509 18.0022 25.5087 18.2848Z" fill="white"/>
<path d="M38.9249 15.0913H39.4978L39.0108 20.0652H27.0655L34.6566 6.52826H30.9613C30.5603 6.52826 30.3024 6.69783 30.1019 7.03696L27.6957 10.937H27.0941L27.6097 5.96304H39.2113L31.6202 19.5H35.6306C36.003 19.5 36.3181 19.3304 36.49 19.0478L38.9249 15.0913Z" fill="white"/>
<path d="M49.3594 6.52826V5.93478H54V6.5L51.9088 7.85652C51.5651 8.08261 51.3932 8.47826 51.2786 8.84565L46.2083 23.6543C45.5208 25.6891 43.8593 26 42.8854 26C41.4531 26 40.25 25.2935 40.1067 23.513L42.8281 20.5739H43.3724C43.2291 22.8913 43.4297 24.4174 44.3463 24.4174C44.6901 24.4174 45.3203 24.2196 45.8646 22.8065L46.8099 20.0935H45.263L41.7682 8.84565C41.625 8.45 41.3672 8.08261 41.052 7.74348L39.6198 6.52826V5.93478H46.3802V6.52826L45.664 7.85652C45.5495 8.13913 45.5495 8.47826 45.6354 8.84565L48.0416 16.5326L50.6771 8.84565C50.7917 8.45 50.8489 7.99783 50.6484 7.74348L49.3594 6.52826Z" fill="white"/>
</svg>
